<svg width="238" height="238" viewBox="0 0 238 238" fill="none" xmlns="http://www.w3.org/2000/svg">
<path d="M234 182.466C236.209 182.466 238 180.675 238 178.466V35.7324C238 33.5233 236.209 31.7324 234 31.7324H4C1.79086 31.7324 0 33.5233 0 35.7324V178.466C0 180.675 1.79086 182.466 4 182.466H87.2333C89.4425 182.466 91.2333 184.257 91.2333 186.466V194.332C91.2333 196.542 89.4425 198.332 87.2333 198.332H67.4333C65.2426 198.332 63.4667 200.108 63.4667 202.299C63.4667 204.49 65.2426 206.266 67.4333 206.266H178.5C180.691 206.266 182.467 204.49 182.467 202.299C182.467 200.108 180.691 198.332 178.5 198.332H150.767C148.558 198.332 146.767 196.542 146.767 194.332V186.466C146.767 184.257 148.558 182.466 150.767 182.466H234ZM138.833 194.332C138.833 196.542 137.042 198.332 134.833 198.332H103.167C100.958 198.332 99.1667 196.542 99.1667 194.332V186.466C99.1667 184.257 100.958 182.466 103.167 182.466H134.833C137.042 182.466 138.833 184.257 138.833 186.466V194.332ZM11.9333 174.532C9.7242 174.532 7.93333 172.742 7.93333 170.532V43.6658C7.93333 41.4566 9.72419 39.6658 11.9333 39.6658H226.067C228.276 39.6658 230.067 41.4566 230.067 43.6658V170.532C230.067 172.742 228.276 174.532 226.067 174.532H11.9333Z" fill="white"/>
<g clip-path="url(#clip0)">
<path d="M118.199 151.404C143.881 151.404 164.699 130.586 164.699 104.904C164.699 79.2231 143.881 58.4043 118.199 58.4043C92.518 58.4043 71.6992 79.2231 71.6992 104.904C71.6992 130.586 92.518 151.404 118.199 151.404Z" fill="#D42428"/>
<path d="M151.078 72.0195C169.237 90.1805 169.239 119.624 151.078 137.785C132.918 155.944 103.473 155.945 85.3125 137.785L151.078 72.0195Z" fill="#CC202D"/>
<path d="M163.765 114.217L140.751 91.2031L113.608 94.2936L97.1895 119.712L127.869 150.39C145.906 146.574 160.087 132.306 163.765 114.217Z" fill="#BA202E"/>
<path d="M142.533 95.9307C142.533 92.0326 139.375 88.873 135.479 88.873H102.385C98.4894 88.873 95.332 92.0333 95.332 95.9307V114.856C95.332 118.754 98.49 121.914 102.385 121.914H135.479C139.376 121.914 142.533 118.753 142.533 114.856V95.9307H142.533ZM114.211 113.377V95.6018L127.691 104.49L114.211 113.377Z" fill="white"/>
</g>
<defs>
<clipPath id="clip0">
<rect width="93" height="93" fill="white" transform="translate(71.6992 58.4043)"/>
</clipPath>
</defs>
</svg>
