<svg width="96" height="158" viewBox="0 0 96 158" fill="none" xmlns="http://www.w3.org/2000/svg">
<path d="M95.0382 73.7754C95.0382 71.219 92.9657 69.1465 90.4093 69.1465C87.8529 69.1465 85.7804 71.219 85.7804 73.7754C85.7804 94.6076 68.8321 111.556 47.9996 111.556C27.167 111.556 10.2188 94.6079 10.2188 73.7754C10.2188 71.219 8.14623 69.1465 5.58984 69.1465C3.03345 69.1465 0.960938 71.219 0.960938 73.7754C0.960938 98.1506 19.5982 118.253 43.3707 120.586V130.149H38.7032C25.8987 130.149 15.4815 140.566 15.4815 153.37C15.4815 155.927 17.554 157.999 20.1104 157.999H75.8887C78.4451 157.999 80.5177 155.927 80.5177 153.37C80.5177 140.566 70.1004 130.149 57.296 130.149H52.6285V120.586C76.401 118.253 95.0382 98.1506 95.0382 73.7754Z" fill="white"/>
<path d="M34.3807 46.4819C36.9371 46.4819 39.0096 48.5545 39.0096 51.1108C39.0096 53.6672 36.9371 55.7397 34.3807 55.7397H20.1292V65.0747H34.3807C36.9371 65.0747 39.0096 67.1472 39.0096 69.7036C39.0096 72.26 36.9371 74.3325 34.3807 74.3325H20.1292V74.352C20.1292 89.7193 32.6316 102.222 47.9992 102.222C63.3669 102.222 75.8693 89.7193 75.8693 74.352V74.3325H61.6172C59.0608 74.3325 56.9883 72.26 56.9883 69.7036C56.9883 67.1472 59.0608 65.0747 61.6172 65.0747H75.8687V55.7397H61.6172C59.0608 55.7397 56.9883 53.6672 56.9883 51.1108C56.9883 48.5545 59.0608 46.4819 61.6172 46.4819H75.8687V37.147H61.6172C59.0608 37.147 56.9883 35.0745 56.9883 32.5181C56.9883 29.9617 59.0608 27.8892 61.6172 27.8892H75.8687V27.87C75.869 12.5024 63.3663 0 47.9989 0C32.6316 0 20.1289 12.5024 20.1289 27.87V27.8892H34.3804C36.9368 27.8892 39.0093 29.9617 39.0093 32.5181C39.0093 35.0745 36.9368 37.147 34.3804 37.147H20.1289V46.4819H34.3807Z" fill="#D42428"/>
</svg>
